<svg width="16" height="16" viewBox="0 0 16 16" fill="none" xmlns="http://www.w3.org/2000/svg">
<path d="M7.59375 10.625C7.25 10.9688 6.71875 10.9688 6.375 10.625L4.375 8.625C4.03125 8.28125 4.03125 7.75 4.375 7.40625C4.71875 7.0625 5.25 7.0625 5.59375 7.40625L7 8.78125L10.375 5.40625C10.7188 5.0625 11.25 5.0625 11.5938 5.40625C11.9375 5.75 11.9375 6.28125 11.5938 6.625L7.59375 10.625ZM16 8C16 12.4375 12.4062 16 8 16C3.5625 16 0 12.4375 0 8C0 3.59375 3.5625 0 8 0C12.4062 0 16 3.59375 16 8ZM8 1.5C4.40625 1.5 1.5 4.4375 1.5 8C1.5 11.5938 4.40625 14.5 8 14.5C11.5625 14.5 14.5 11.5938 14.5 8C14.5 4.4375 11.5625 1.5 8 1.5Z" fill="#31DB42"/>
</svg>
