<svg width="11" height="11" viewBox="0 0 11 11" fill="none" xmlns="http://www.w3.org/2000/svg">
	<path
		d="M4.5 3.625C4.5 4.25781 3.98438 4.75 3.375 4.75H1.125C0.492188 4.75 0 4.25781 0 3.625V1.375C0 0.765625 0.492188 0.25 1.125 0.25H3.375C3.98438 0.25 4.5 0.765625 4.5 1.375V3.625ZM4.5 9.625C4.5 10.2578 3.98438 10.75 3.375 10.75H1.125C0.492188 10.75 0 10.2578 0 9.625V7.375C0 6.76562 0.492188 6.25 1.125 6.25H3.375C3.98438 6.25 4.5 6.76562 4.5 7.375V9.625ZM6 1.375C6 0.765625 6.49219 0.25 7.125 0.25H9.375C9.98438 0.25 10.5 0.765625 10.5 1.375V3.625C10.5 4.25781 9.98438 4.75 9.375 4.75H7.125C6.49219 4.75 6 4.25781 6 3.625V1.375ZM10.5 9.625C10.5 10.2578 9.98438 10.75 9.375 10.75H7.125C6.49219 10.75 6 10.2578 6 9.625V7.375C6 6.76562 6.49219 6.25 7.125 6.25H9.375C9.98438 6.25 10.5 6.76562 10.5 7.375V9.625Z"
		fill="#000"/>
</svg>
