<svg xmlns="http://www.w3.org/2000/svg" viewBox="0 0 19 13"><path fill-rule="evenodd" d="M10.29 0h.39l.37.03.39.05.34.08h.02a4.92 4.92 0 0 1 2.22 1.2 5.93 5.93 0 0 1 1.4 2.08 4.97 4.97 0 0 1 .29 1.27 3.83 3.83 0 0 1 2.77 3.96 3.84 3.84 0 0 1-2.66 3.38c-.36.12-.72.18-1.1.18H4.12c-.16 0-.34 0-.52-.02A4.03 4.03 0 0 1 .1 9.08a4.04 4.04 0 0 1 2.14-4.5 2.9 2.9 0 0 1 1.53-2.1c.8-.44 1.63-.46 2.42-.17a4.23 4.23 0 0 1 .4-.53l.26-.28a4.98 4.98 0 0 1 .6-.5c.1-.08.2-.15.3-.2V.78l.02-.01a4.57 4.57 0 0 1 1-.49h.02a4.88 4.88 0 0 1 .74-.2 5.4 5.4 0 0 1 .76-.09Zm.04 1.02a2.54 2.54 0 0 0-.3.03 4.4 4.4 0 0 0-.6.1h-.01a3.86 3.86 0 0 0-1.61.86 4 4 0 0 0-.44.42 3.94 3.94 0 0 0-.54.77.5.5 0 0 1-.68.2 1.92 1.92 0 0 0-1.9-.03c-.63.33-.97.86-1.06 1.6a.5.5 0 0 1-.3.41.99.99 0 0 0-.08.04 3.02 3.02 0 0 0 .9 5.78l.41.01h10.6a2.82 2.82 0 0 0 2.63-3.67h-.01A2.81 2.81 0 0 0 15.1 5.6a.5.5 0 0 1-.39-.46 3.95 3.95 0 0 0-.53-1.96 4.9 4.9 0 0 0-.85-1.07 4.16 4.16 0 0 0-2.4-1.07 4.07 4.07 0 0 0-.61-.02Z" clip-rule="evenodd"/><path d="M9.56 6.55 8.14 7.97l.03.04.74.74.05.04c.11.14.1.33-.01.46l-.03.03-1.16 1.16a.36.36 0 0 1-.15.1.35.35 0 0 1-.34-.08 16848.18 16848.18 0 0 0-.77-.77l-.04-.03-.03.02-.17.17a.67.67 0 0 1-.9.05.65.65 0 0 1-.25-.42.67.67 0 0 1 .18-.58l.06-.06 3.18-3.19.06-.05-.01-.05a2.33 2.33 0 0 1-.22-1.16 2.2 2.2 0 0 1 3.45-1.66 2.19 2.19 0 0 1 .96 2.07A2.22 2.22 0 0 1 9.6 6.57s-.02 0-.03-.02Zm1.01-1.12a.85.85 0 1 0 0-1.7.85.85 0 0 0 0 1.7Z"/></svg>