<svg width="9" height="13" viewBox="0 0 9 13" fill="none" xmlns="http://www.w3.org/2000/svg">
<path d="M8.62891 7.40625L1.19141 0.789062C1.08203 0.707031 0.917969 0.625 0.78125 0.625C0.671875 0.625 0.589844 0.652344 0.507812 0.707031C0.261719 0.816406 0.125 1.03516 0.125 1.30859V11.4258C0.125 11.6992 0.289062 11.9453 0.535156 12.0273C0.617188 12.0547 0.699219 12.082 0.78125 12.082C0.945312 12.082 1.13672 12 1.27344 11.8359L3.54297 9.15625L5.15625 12.5195C5.29297 12.8477 5.70312 12.9844 6.00391 12.8203C6.33203 12.6562 6.49609 12.2734 6.33203 11.9453L4.71875 8.55469H8.19141C8.46484 8.55469 8.71094 8.39062 8.82031 8.14453C8.90234 7.87109 8.84766 7.59766 8.62891 7.40625ZM3.43359 7.24219L1.4375 9.62109V2.75781L6.46875 7.24219H3.43359Z" fill="#7E93A5"/>
</svg>
