<svg width="18" height="15" viewBox="0 0 18 15" fill="none" xmlns="http://www.w3.org/2000/svg">
<path d="M8.75 4.25C8.96875 4.25 9.1875 4.46875 9.1875 4.6875V5.125H9.625C9.84375 5.125 10.0625 5.34375 10.0625 5.5625C10.0625 5.80859 9.84375 6 9.625 6H8.75C8.50391 6 8.3125 5.80859 8.3125 5.5625V4.6875C8.3125 4.46875 8.50391 4.25 8.75 4.25ZM13.0156 3.45703L16.4609 4.19531C17.0625 4.33203 17.5 4.87891 17.5 5.48047V13.4375C17.5 14.1758 16.8984 14.75 16.1875 14.75H1.3125C0.574219 14.75 0 14.1758 0 13.4375V5.48047C0 4.87891 0.410156 4.33203 1.01172 4.19531L4.45703 3.45703L8.25781 0.914062C8.53125 0.722656 8.94141 0.722656 9.21484 0.914062L13.0156 3.45703ZM7 14.75H10.5V12.125C10.5 11.168 9.70703 10.375 8.75 10.375C7.76562 10.375 7 11.168 7 12.125V14.75ZM2.625 6C2.37891 6 2.1875 6.21875 2.1875 6.4375V8.1875C2.1875 8.43359 2.37891 8.625 2.625 8.625H3.5C3.71875 8.625 3.9375 8.43359 3.9375 8.1875V6.4375C3.9375 6.21875 3.71875 6 3.5 6H2.625ZM13.5625 8.1875C13.5625 8.43359 13.7539 8.625 14 8.625H14.875C15.0938 8.625 15.3125 8.43359 15.3125 8.1875V6.4375C15.3125 6.21875 15.0938 6 14.875 6H14C13.7539 6 13.5625 6.21875 13.5625 6.4375V8.1875ZM2.625 9.5C2.37891 9.5 2.1875 9.71875 2.1875 9.9375V11.6875C2.1875 11.9336 2.37891 12.125 2.625 12.125H3.5C3.71875 12.125 3.9375 11.9336 3.9375 11.6875V9.9375C3.9375 9.71875 3.71875 9.5 3.5 9.5H2.625ZM13.5625 11.6875C13.5625 11.9336 13.7539 12.125 14 12.125H14.875C15.0938 12.125 15.3125 11.9336 15.3125 11.6875V9.9375C15.3125 9.71875 15.0938 9.5 14.875 9.5H14C13.7539 9.5 13.5625 9.71875 13.5625 9.9375V11.6875ZM8.75 3.15625C7.41016 3.15625 6.34375 4.25 6.34375 5.5625C6.34375 6.90234 7.41016 7.96875 8.75 7.96875C10.0625 7.96875 11.1562 6.90234 11.1562 5.5625C11.1562 4.25 10.0625 3.15625 8.75 3.15625Z" fill="#5C778F"/>
</svg>
