<svg width="14" height="14" viewBox="0 0 14 14" fill="none" xmlns="http://www.w3.org/2000/svg">
<path d="M0 11.125C0 10.6602 0.382812 10.25 0.875 10.25H2.35156C2.70703 9.48438 3.47266 8.9375 4.375 8.9375C5.25 8.9375 6.01562 9.48438 6.37109 10.25H13.125C13.5898 10.25 14 10.6602 14 11.125C14 11.6172 13.5898 12 13.125 12H6.37109C6.01562 12.793 5.25 13.3125 4.375 13.3125C3.47266 13.3125 2.70703 12.793 2.35156 12H0.875C0.382812 12 0 11.6172 0 11.125ZM5.25 11.125C5.25 10.6602 4.83984 10.25 4.375 10.25C3.88281 10.25 3.5 10.6602 3.5 11.125C3.5 11.6172 3.88281 12 4.375 12C4.83984 12 5.25 11.6172 5.25 11.125ZM9.625 4.5625C10.5 4.5625 11.2656 5.10938 11.6211 5.875H13.125C13.5898 5.875 14 6.28516 14 6.75C14 7.24219 13.5898 7.625 13.125 7.625H11.6211C11.2656 8.41797 10.5 8.9375 9.625 8.9375C8.72266 8.9375 7.95703 8.41797 7.60156 7.625H0.875C0.382812 7.625 0 7.24219 0 6.75C0 6.28516 0.382812 5.875 0.875 5.875H7.60156C7.95703 5.10938 8.72266 4.5625 9.625 4.5625ZM10.5 6.75C10.5 6.28516 10.0898 5.875 9.625 5.875C9.13281 5.875 8.75 6.28516 8.75 6.75C8.75 7.24219 9.13281 7.625 9.625 7.625C10.0898 7.625 10.5 7.24219 10.5 6.75ZM13.125 1.5C13.5898 1.5 14 1.91016 14 2.375C14 2.86719 13.5898 3.25 13.125 3.25H7.24609C6.89062 4.04297 6.125 4.5625 5.25 4.5625C4.34766 4.5625 3.58203 4.04297 3.22656 3.25H0.875C0.382812 3.25 0 2.86719 0 2.375C0 1.91016 0.382812 1.5 0.875 1.5H3.22656C3.58203 0.734375 4.34766 0.1875 5.25 0.1875C6.125 0.1875 6.89062 0.734375 7.24609 1.5H13.125ZM4.375 2.375C4.375 2.86719 4.75781 3.25 5.25 3.25C5.71484 3.25 6.125 2.86719 6.125 2.375C6.125 1.91016 5.71484 1.5 5.25 1.5C4.75781 1.5 4.375 1.91016 4.375 2.375Z" fill="#25A4CF"/>
</svg>
