<svg width="14" height="16" viewBox="0 0 14 16" fill="none" xmlns="http://www.w3.org/2000/svg">
<path d="M4.6875 12.5938C4.6875 12.8574 4.45312 13.0625 4.21875 13.0625C3.95508 13.0625 3.75 12.8574 3.75 12.5938V6.5C3.75 6.26562 3.95508 6.03125 4.21875 6.03125C4.45312 6.03125 4.6875 6.26562 4.6875 6.5V12.5938ZM7.03125 12.5938C7.03125 12.8574 6.79688 13.0625 6.5625 13.0625C6.29883 13.0625 6.09375 12.8574 6.09375 12.5938V6.5C6.09375 6.26562 6.29883 6.03125 6.5625 6.03125C6.79688 6.03125 7.03125 6.26562 7.03125 6.5V12.5938ZM9.375 12.5938C9.375 12.8574 9.14062 13.0625 8.90625 13.0625C8.64258 13.0625 8.4375 12.8574 8.4375 12.5938V6.5C8.4375 6.26562 8.64258 6.03125 8.90625 6.03125C9.14062 6.03125 9.375 6.26562 9.375 6.5V12.5938ZM9.28711 1.60742L10.3711 3.21875H12.4219C12.8027 3.21875 13.125 3.54102 13.125 3.92188C13.125 4.33203 12.8027 4.625 12.4219 4.625H12.1875V13.5312C12.1875 14.8496 11.1328 15.875 9.84375 15.875H3.28125C1.96289 15.875 0.9375 14.8496 0.9375 13.5312V4.625H0.703125C0.292969 4.625 0 4.33203 0 3.92188C0 3.54102 0.292969 3.21875 0.703125 3.21875H2.72461L3.80859 1.60742C4.10156 1.16797 4.62891 0.875 5.18555 0.875H7.91016C8.4668 0.875 8.99414 1.16797 9.28711 1.60742ZM4.42383 3.21875H8.67188L8.11523 2.39844C8.08594 2.33984 7.99805 2.28125 7.91016 2.28125H5.18555C5.09766 2.28125 5.00977 2.33984 4.98047 2.39844L4.42383 3.21875ZM2.34375 13.5312C2.34375 14.0586 2.75391 14.4688 3.28125 14.4688H9.84375C10.3418 14.4688 10.7812 14.0586 10.7812 13.5312V4.625H2.34375V13.5312Z" fill="#374A5C"/>
</svg>
