<?xml version="1.0" encoding="utf-8"?>
<!-- Generator: Adobe Illustrator 18.0.0, SVG Export Plug-In . SVG Version: 6.00 Build 0)  -->
<!DOCTYPE svg PUBLIC "-//W3C//DTD SVG 1.1//EN" "http://www.w3.org/Graphics/SVG/1.1/DTD/svg11.dtd">
<svg version="1.1" id="Layer_1" xmlns="http://www.w3.org/2000/svg" xmlns:xlink="http://www.w3.org/1999/xlink" x="0px" y="0px"
	 viewBox="0 0 24 24" enable-background="new 0 0 24 24" xml:space="preserve">
<g>
	<path d="M21,23h-12c-1.7,0-3-1.3-3-3v-7c0-1.7,1.3-3,3-3h12c1.7,0,3,1.3,3,3v7C24,21.7,22.7,23,21,23z M8.9,12c-0.6,0-1,0.4-1,1v7
		c0,0.6,0.4,1,1,1h12c0.6,0,1-0.4,1-1v-7c0-0.6-0.4-1-1-1H8.9z"/>
	<path d="M0,7.7V7c0-3.3,2.7-6,6-6s6,2.7,6,6v4c0,0.6-0.4,1-1,1c-0.6,0-1-0.4-1-1V7c0-2.2-1.8-4-4-4S2,4.8,2,7v0.7c0,0.6-0.4,1-1,1
		S0,8.3,0,7.7z"/>
</g>
</svg>
