<?xml version="1.0" encoding="utf-8"?>
<!-- Generator: Adobe Illustrator 18.0.0, SVG Export Plug-In . SVG Version: 6.00 Build 0)  -->
<!DOCTYPE svg PUBLIC "-//W3C//DTD SVG 1.1//EN" "http://www.w3.org/Graphics/SVG/1.1/DTD/svg11.dtd">
<svg version="1.1" id="Layer_1" xmlns="http://www.w3.org/2000/svg" xmlns:xlink="http://www.w3.org/1999/xlink" x="0px" y="0px"
	 viewBox="0 0 24 24" enable-background="new 0 0 24 24" xml:space="preserve">
<g>
	<path d="M0,20l0-7c0-1.7,1.3-3,3-3h12c1.7,0,3,1.3,3,3v7c0,1.7-1.3,3-3,3H3C1.3,23,0,21.7,0,20z M3,12c-0.6,0-1,0.4-1,1v7
		c0,0.6,0.4,1,1,1h12c0.6,0,1-0.4,1-1v-7c0-0.6-0.4-1-1-1H3z"/>
	<path d="M23,8.7c-0.6,0-1-0.4-1-1V7c0-2.2-1.8-4-4-4s-4,1.8-4,4v4c0,0.6-0.4,1-1,1c-0.6,0-1-0.4-1-1V7c0-3.3,2.7-6,6-6s6,2.7,6,6
		v0.7C24,8.3,23.6,8.7,23,8.7z"/>
</g>
</svg>
