<svg xmlns="http://www.w3.org/2000/svg" fill="none" viewBox="0 0 16 18"><path fill="currentColor" fill-rule="evenodd" d="M4.943 10.887a3 3 0 0 0-2.943 3v2.59a1 1 0 0 1-2 0v-2.59a5 5 0 0 1 5-5h5.182a5 5 0 0 1 5 5v2.59a1 1 0 0 1-2 0v-2.59a3 3 0 0 0-2.943-3v3.52a1.5 1.5 0 0 1-.371.987L8.72 16.706a1.5 1.5 0 0 1-2.258 0l-1.148-1.312a1.5 1.5 0 0 1-.37-.988v-3.52Zm3.296 0H6.943v3.331l.648.74.648-.74v-3.332ZM7.591 6.027c1.22 0 2.12-.95 2.12-2.013C9.71 2.95 8.81 2 7.59 2c-1.22 0-2.12.95-2.12 2.014 0 1.063.9 2.013 2.12 2.013Zm0 2c2.275 0 4.12-1.797 4.12-4.013C11.71 1.797 9.865 0 7.59 0c-2.275 0-4.12 1.797-4.12 4.014 0 2.216 1.845 4.013 4.12 4.013Z" clip-rule="evenodd"/></svg>