<svg width="15" height="11" viewBox="0 0 15 11" fill="none" xmlns="http://www.w3.org/2000/svg">
<path fill-rule="evenodd" clip-rule="evenodd" d="M2.0625 2.75C2.0625 1.23062 3.29312 0 4.8125 0C6.33187 0 7.5625 1.23062 7.5625 2.75C7.5625 4.26937 6.33187 5.5 4.8125 5.5C3.29312 5.5 2.0625 4.26937 2.0625 2.75ZM3.09375 2.75C3.09375 3.69875 3.86375 4.46875 4.8125 4.46875C5.76125 4.46875 6.53125 3.69875 6.53125 2.75C6.53125 1.80125 5.76125 1.03125 4.8125 1.03125C3.86375 1.03125 3.09375 1.80125 3.09375 2.75ZM0 10.3125C0 8.2225 1.69125 6.53125 3.78125 6.53125H5.84375C7.93375 6.53125 9.625 8.2225 9.625 10.3125C9.625 10.6906 9.31563 11 8.9375 11H0.6875C0.309375 11 0 10.6906 0 10.3125ZM3.78125 7.5625C2.37875 7.5625 1.22375 8.61438 1.05187 9.96875H8.57312C8.40125 8.61438 7.24625 7.5625 5.84375 7.5625H3.78125ZM8.25003 2.75C8.25003 3.5475 7.97503 4.27625 7.5144 4.86063C7.99565 5.25938 8.60753 5.50688 9.28128 5.50688C10.8007 5.50688 12.0313 4.27625 12.0313 2.75688C12.0313 1.2375 10.8007 0 9.28128 0C8.60753 0 7.99565 0.2475 7.5144 0.64625C7.96815 1.23063 8.25003 1.9525 8.25003 2.74312V2.75ZM8.22266 6.53813H10.3677L10.3608 6.53125C12.4233 6.53125 14.087 8.20187 14.087 10.2575C14.087 10.67 13.757 11 13.3445 11H10.1133C10.2302 10.8006 10.3058 10.5669 10.3058 10.3125C10.3058 8.72437 9.47391 7.32875 8.22266 6.53813Z" fill="white"/>
</svg>
