<svg width="16" height="10" viewBox="0 0 16 10" fill="none" xmlns="http://www.w3.org/2000/svg">
<path fill-rule="evenodd" clip-rule="evenodd" d="M6.68931 2.7486C6.68931 3.99046 5.68258 4.9972 4.44071 4.9972C3.19885 4.9972 2.19211 3.99046 2.19211 2.7486C2.19211 1.50673 3.19885 0.5 4.44071 0.5C5.68258 0.5 6.68931 1.50673 6.68931 2.7486ZM3.54685 5.8404H5.32886C7.01531 5.8404 8.37571 7.20642 8.37571 8.88725C8.37571 9.22454 8.10588 9.49437 7.76859 9.49437H1.10712C0.769832 9.49437 0.5 9.22454 0.5 8.88725C0.5 7.2008 1.86602 5.8404 3.54685 5.8404ZM7.07163 1.79294C7.33022 1.51749 7.68999 1.34885 8.09474 1.34885C8.87051 1.34885 9.50012 1.97845 9.50012 2.75422C9.50012 3.52999 8.87051 4.15959 8.09474 4.15959C7.68999 4.15959 7.33022 3.98533 7.07163 3.71549C6.97044 3.99095 6.82991 4.24392 6.65564 4.46878C7.04914 4.79482 7.54384 5.00282 8.09474 5.00282C9.33709 5.00282 10.3433 3.99657 10.3433 2.75422C10.3433 1.51187 9.33709 0.5 8.09474 0.5C7.54384 0.5 7.04352 0.707995 6.65564 1.03404C6.82991 1.2589 6.97607 1.51187 7.07163 1.78732V1.79294ZM7.26252 5.84603H8.93211C10.641 5.84603 12.0239 7.22892 12.0239 8.93785C12.0239 9.24703 11.771 9.5 11.4618 9.5H8.75222C8.86465 9.32011 8.93211 9.11212 8.93211 8.88726C8.93211 8.84791 8.9293 8.80996 8.92649 8.77202L8.92648 8.77198C8.92367 8.73405 8.92087 8.69611 8.92087 8.65678H11.1638C11.0233 7.54934 10.0789 6.68925 8.93211 6.68925H8.18445C7.93148 6.35759 7.61668 6.07089 7.26252 5.84603ZM10.7255 1.79294C10.9841 1.51749 11.3438 1.34885 11.7486 1.34885C12.5243 1.34885 13.1539 1.97845 13.1539 2.75422C13.1539 3.52999 12.5243 4.15959 11.7486 4.15959C11.3438 4.15959 10.9841 3.98533 10.7255 3.71549C10.6243 3.99095 10.4837 4.24392 10.3095 4.46878C10.703 4.79482 11.1977 5.00282 11.7486 5.00282C12.9909 5.00282 13.9972 3.99657 13.9972 2.75422C13.9972 1.51187 12.9909 0.5 11.7486 0.5C11.1977 0.5 10.6974 0.707995 10.3095 1.03404C10.4837 1.2589 10.6299 1.51187 10.7255 1.78732V1.79294ZM10.9166 5.84603H12.5862C14.2951 5.84603 15.678 7.22892 15.678 8.93785C15.678 9.24703 15.425 9.5 15.1158 9.5H12.4063C12.5187 9.32011 12.5862 9.11212 12.5862 8.88726C12.5862 8.84791 12.5834 8.80996 12.5805 8.77202C12.5777 8.73407 12.5749 8.69613 12.5749 8.65678H14.8179C14.6774 7.54934 13.7329 6.68925 12.5862 6.68925H11.8385C11.5855 6.35759 11.2707 6.07089 10.9166 5.84603Z" fill="white"/>
</svg>
