<svg xmlns="http://www.w3.org/2000/svg" width="16" height="18" viewBox="0 0 16 18" fill="none">
<path d="M10.7103 4.01369C10.7103 5.65378 9.3384 7.02739 7.591 7.02739C5.8436 7.02739 4.47168 5.65378 4.47168 4.01369C4.47168 2.3736 5.8436 1 7.591 1C9.3384 1 10.7103 2.3736 10.7103 4.01369Z" fill="none" stroke="currentColor" stroke-width="2"/>
<path d="M1 16.4773V13.8864C1 11.6772 2.79086 9.88635 5 9.88635H10.1818C12.391 9.88635 14.1818 11.6772 14.1818 13.8864V16.4773" stroke="currentColor" stroke-width="2" stroke-linecap="round" fill="none"/>
<path d="M5.94336 10.3571V14.4063C5.94336 14.5274 5.98732 14.6444 6.06707 14.7355L7.2148 16.0472C7.414 16.2749 7.76817 16.2749 7.96738 16.0472L9.1151 14.7355C9.19485 14.6444 9.23881 14.5274 9.23881 14.4063V9.88635" stroke="currentColor" stroke-width="2" stroke-linecap="round" fill="none"/>
</svg>