<svg width="19" height="16" viewBox="0 0 19 16" fill="none" xmlns="http://www.w3.org/2000/svg">
<path d="M6.6875 7.875C8.73828 7.875 10.4375 6.20508 10.4375 4.125C10.4375 2.07422 8.73828 0.375 6.6875 0.375C4.60742 0.375 2.9375 2.07422 2.9375 4.125C2.9375 6.20508 4.60742 7.875 6.6875 7.875ZM6.6875 1.78125C7.97656 1.78125 9.03125 2.83594 9.03125 4.125C9.03125 5.44336 7.97656 6.46875 6.6875 6.46875C5.36914 6.46875 4.34375 5.44336 4.34375 4.125C4.34375 2.83594 5.36914 1.78125 6.6875 1.78125ZM8.15234 9.28125H5.19336C2.38086 9.28125 0.125 11.5664 0.125 14.3789C0.125 14.9355 0.564453 15.375 1.12109 15.375H12.2246C12.7812 15.375 13.25 14.9355 13.25 14.3789C13.25 11.5664 10.9648 9.28125 8.15234 9.28125ZM1.53125 13.9688C1.73633 12.1523 3.28906 10.6875 5.19336 10.6875H8.15234C10.0566 10.6875 11.5801 12.1523 11.8145 13.9688H1.53125ZM14.1582 9.75H11.9902C13.3379 10.8633 14.1875 12.5332 14.1875 14.3789C14.1875 14.7598 14.0703 15.082 13.8945 15.375H17.9375C18.4355 15.375 18.875 14.9648 18.875 14.4375C18.875 11.8594 16.7656 9.75 14.1582 9.75ZM12.7812 7.875C14.5684 7.875 16.0625 6.41016 16.0625 4.59375C16.0625 2.80664 14.5684 1.3125 12.7812 1.3125C12.0195 1.3125 11.3457 1.57617 10.8184 1.98633C11.1406 2.63086 11.375 3.36328 11.375 4.125C11.375 5.17969 11.0234 6.14648 10.4375 6.9082C11.0234 7.52344 11.8438 7.875 12.7812 7.875Z" fill="white"/>
</svg>
