<svg width="13" height="12" viewBox="0 0 13 12" fill="none" xmlns="http://www.w3.org/2000/svg">
	<path
		d="M12.8571 6.78741C12.8571 3.04544 9.97297 0 6.42796 0C2.88295 0 0 3.04544 0 6.78741C0 7.43565 0.0866692 8.07625 0.256396 8.69144L0.657241 10.7188C0.829376 11.5894 1.63708 12.1474 2.46044 11.9657L2.85286 11.8792C3.46075 11.7458 3.84956 11.1166 3.72316 10.476L3.22482 7.95169C3.05268 7.08102 2.24497 6.52303 1.42162 6.70479C1.37708 6.71496 1.33374 6.72767 1.29161 6.74038C1.31569 3.76994 3.61001 1.36257 6.42917 1.36257C9.24832 1.36257 11.5439 3.77248 11.5667 6.74419C11.5198 6.72894 11.4716 6.71496 11.4235 6.70479C10.5989 6.52303 9.79121 7.08102 9.62028 7.95169L9.12193 10.476C8.99554 11.1179 9.38435 11.7458 9.99223 11.8792L10.3847 11.9657C11.2092 12.1474 12.0169 11.5894 12.1879 10.7188L12.561 8.82999C12.7572 8.17158 12.8583 7.48522 12.8583 6.78741H12.8571Z"
		fill="#000"/>
	<path
		d="M6.38477 2.95142C4.91139 2.95142 3.71729 4.2123 3.71729 5.76806C3.71729 7.32383 4.91139 8.58471 6.38477 8.58471C7.85815 8.58471 9.05225 7.32383 9.05225 5.76806C9.05225 4.2123 7.85815 2.95142 6.38477 2.95142V2.95142ZM7.60295 6.0693L6.82775 6.5523L6.05254 7.0353C5.86716 7.15097 5.63243 7.01115 5.63123 6.78363L5.6216 5.83289L5.61197 4.88214C5.60956 4.65462 5.84188 4.511 6.02846 4.62158L6.8121 5.08805L7.59573 5.55453C7.78351 5.66638 7.78592 5.94982 7.60055 6.06549L7.60295 6.0693Z"
		fill="#000"/>
</svg>
