<svg xmlns="http://www.w3.org/2000/svg" xml:space="preserve" viewBox="0 0 494.3 493.1"><circle cx="247.2" cy="246.5" r="244.4" fill="#f0d70f"/><path fill="#fff" stroke="currentColor" stroke-linecap="round" stroke-linejoin="round" stroke-miterlimit="10" stroke-width="24" d="m103.8 204.1-1.8.8a77.2 77.2 0 0 0-44.1 87.8 77.2 77.2 0 0 0 77.3 60.4h231.7a72.1 72.1 0 0 0 71.2-67.6 72.7 72.7 0 0 0-58.1-76.6l-1.9-.5a112.6 112.6 0 0 0-6.2-32.7 103 103 0 0 0-78.7-66.5 92.6 92.6 0 0 0-22.7-1.6c-2.5.1-4.9.3-7.4.6s-5.1.6-7.6 1.1a93.8 93.8 0 0 0-14.5 3.9 98.3 98.3 0 0 0-20.3 9.7c-2.1 1.4-4.3 2.8-6.3 4.3s-4 3-5.8 4.6c-1.9 1.7-3.8 3.3-5.6 5.2-1.8 1.8-3.5 3.5-5.1 5.4a88.4 88.4 0 0 0-9.1 12l-4 6.5a53 53 0 0 0-52-.6 53.8 53.8 0 0 0-29 43.8z"/><path d="m254.1 240-31 31 .7.8L240 288l.9.9c2.5 3 2.4 7.1-.2 10l-.6.6-25.4 25.4c-.9.9-2 1.8-3.3 2.1-2.8.8-5.3.3-7.5-1.6l-.8-.7-16-16-.7-.8-.6.5-3.8 3.7a14.7 14.7 0 0 1-19.5 1.1 14.9 14.9 0 0 1-1.7-22l1.2-1.2 69.7-69.7 1.2-1.2c.1-.5-.2-.7-.3-1a48.4 48.4 0 0 1 38.3-69.7 47.2 47.2 0 0 1 32.5 8 47.6 47.6 0 0 1 21.1 45.1 48.8 48.8 0 0 1-69.5 38.9c-.2-.2-.6-.2-.9-.4zm22.2-24.7c9.7.1 18.6-7.8 18.6-18.6a18.6 18.6 0 1 0-37.3 0 18.6 18.6 0 0 0 18.7 18.6z"/></svg>