<svg version="1.1" id="Layer_1" xmlns="http://www.w3.org/2000/svg" xmlns:xlink="http://www.w3.org/1999/xlink" x="0px" y="0px"
	 viewBox="500 500 24 24" enable-background="new 500 500 24 24" xml:space="preserve">
	<path d="M516.1,513.1h-8.1c-0.6,0-1.1-0.5-1.1-1.1v-10.9c0-0.6,0.5-1.1,1.1-1.1l0,0h8.1c0.6,0,1.1,0.5,1.1,1.1l0,0V512
		C517.2,512.6,516.7,513.1,516.1,513.1z M507.9,500.4c-0.4,0-0.7,0.3-0.7,0.7l0,0V512c0,0.4,0.3,0.7,0.7,0.7h8.1
		c0.4,0,0.7-0.3,0.7-0.7v-10.9c0-0.4-0.3-0.7-0.7-0.7H507.9z"/>
	<path d="M510.8,517.1h2.5c0.2,0,0.4,0.2,0.4,0.4v1.3c0,0.2-0.2,0.4-0.4,0.4h-2.5c-0.2,0-0.4-0.2-0.4-0.4v-1.3
		C510.3,517.3,510.5,517.1,510.8,517.1z"/>
	<path d="M513.2,519.5h-2.5c-0.4,0-0.7-0.3-0.7-0.7v-1.3c0-0.4,0.3-0.7,0.7-0.7h2.5c0.4,0,0.7,0.3,0.7,0.7v1.3
		C513.9,519.2,513.6,519.5,513.2,519.5z M510.8,517.3c-0.1,0-0.2,0.1-0.2,0.2v1.3c0,0.1,0.1,0.2,0.2,0.2h2.5c0.1,0,0.2-0.1,0.2-0.2
		v-1.3c0-0.1-0.1-0.2-0.2-0.2H510.8L510.8,517.3z"/>
	<path d="M512,518.6c-2,0-3.9-0.2-5.8-0.6c-0.3,0-0.6-0.1-0.8-0.3c-0.2-0.2-0.3-0.5-0.3-0.8v-8c0-0.6,0.5-1.1,1.1-1.1h0.1
		c1.9,0.6,3.8,0.8,5.8,0.8c0,0,1,0,5.7-0.8l0,0c0.6,0,1.1,0.5,1.2,1.1c0,0,0,0,0,0v8c0,0.6-0.5,1.1-1.1,1.1
		c-1.9,0.4-3.7,0.6-5.6,0.6L512,518.6L512,518.6z M506.2,508.2c-0.4,0-0.6,0.3-0.6,0.7v8c0,0.2,0.1,0.3,0.2,0.5
		c0.1,0.1,0.3,0.2,0.5,0.2h0c1.9,0.4,3.9,0.6,5.9,0.6c1.9,0,3.7-0.2,5.6-0.6h0c0.4,0,0.7-0.3,0.7-0.7v-8c0-0.4-0.3-0.7-0.7-0.7
		c-4.7,0.7-5.7,0.8-5.7,0.8C510.1,509,508.1,508.8,506.2,508.2z"/>
	<path d="M508.5,501.2h4.2c0.2,0,0.4,0.2,0.4,0.4v3.3c0,0.2-0.2,0.4-0.4,0.4h-4.2c-0.2,0-0.4-0.2-0.4-0.4v-3.3
		C508.1,501.4,508.3,501.2,508.5,501.2z"/>
	<path d="M512.7,505.6h-4.2c-0.4,0-0.7-0.3-0.7-0.7v-3.3c0-0.4,0.3-0.7,0.7-0.7h4.2c0.4,0,0.7,0.3,0.7,0.7v3.3
		C513.3,505.3,513,505.6,512.7,505.6L512.7,505.6z M508.5,501.4c-0.1,0-0.2,0.1-0.2,0.2v3.3c0,0.1,0.1,0.2,0.2,0.2h4.2
		c0.1,0,0.2-0.1,0.2-0.2v-3.3c0-0.1-0.1-0.2-0.2-0.2L508.5,501.4L508.5,501.4z"/>
	<path fill="#FFFFFF" d="M512,504.3c0.2,0.4,0.5,0.7,0.9,0.9v-3.6c-0.4,0.2-0.7,0.5-0.9,0.9"/>
	<path fill="#FFFFFF" d="M512.2,503.3L512.2,503.3c0,0.5-0.5,1-1,1h-0.8c-0.5,0-0.9-0.5-0.9-1c0,0,0,0,0,0l0,0c0-0.5,0.4-1,0.9-1
		c0,0,0,0,0,0h0.8C511.7,502.4,512.1,502.8,512.2,503.3z"/>
	<path d="M511.2,504.5h-0.8c-0.6,0-1.1-0.6-1.1-1.2c0-0.6,0.5-1.2,1.1-1.2h0.8c0.7,0,1.2,0.5,1.2,1.2
		C512.4,504,511.8,504.5,511.2,504.5z M510.4,502.6c-0.4,0-0.7,0.4-0.7,0.7c0,0.4,0.3,0.7,0.7,0.7h0.8c0.4,0,0.8-0.3,0.8-0.7
		c0-0.4-0.4-0.7-0.8-0.7C511.2,502.6,510.4,502.6,510.4,502.6z"/>
	<path d="M511,524c0.2-0.3,0.3-0.7,0.5-1c0.4-0.7,0.7-1.3,0.7-1.9v-1.7h-0.4v1.7c-0.1,0.6-0.3,1.2-0.7,1.7c-0.2,0.4-0.4,0.8-0.6,1.2
		L511,524L511,524z"/>
	<path fill="#FFFFFF" d="M517.8,517.8c-1.8,0.4-3.7,0.6-5.6,0.6c-2,0-4-0.2-6-0.6c-0.2,0-0.5-0.1-0.6-0.3c-0.2-0.2-0.3-0.4-0.3-0.6
		v-8c0-0.5,0.4-0.9,0.9-0.9c1.9,0.6,3.9,0.8,5.9,0.8c0,0,1,0,5.7-0.8c0.5,0,0.9,0.4,0.9,0.9v8C518.7,517.4,518.3,517.8,517.8,517.8z
		"/>
	<circle cx="514.8" cy="516.5" r="0.7"/>
	<circle cx="516.9" cy="516" r="0.7"/>
</svg>
