<?xml version="1.0" encoding="UTF-8" standalone="no"?>
<svg xmlns:xlink="http://www.w3.org/1999/xlink" width="164px" height="165px" viewBox="0 0 164 165" version="1.1" xmlns="http://www.w3.org/2000/svg">
    <!-- Generator: Sketch 39.1 (31720) - http://www.bohemiancoding.com/sketch -->
    <title>itsme-logo</title>
    <desc>Created with Sketch.</desc>
    <defs></defs>
    <g id="Page-1" stroke="none" stroke-width="1" fill="none" fill-rule="evenodd">
        <g id="itsme-logo">
            <path d="M155.225239,46.720603 L117.549745,8.82583162 C110.629757,1.86556749 97.2420664,-1.72829438 87.8345002,0.819253273 L36.3642581,14.6942896 C26.9114632,17.2418373 17.1420675,27.0680925 14.6092612,36.5759043 L0.814512669,88.391204 C-1.71829362,97.8990157 1.8547724,111.364625 8.77476101,118.279397 L46.4502546,156.174168 C53.3702432,163.134433 66.7579336,166.728294 76.1654998,164.180747 L127.635742,150.30571 C137.088537,147.758163 146.857932,137.931907 149.390739,128.424096 L163.185487,76.608796 C165.718294,67.1009843 162.145228,53.6353752 155.225239,46.720603 L155.225239,46.720603 Z" id="Path" fill="#FFFFFF"></path>
            <path d="M155.225239,46.720603 L117.549745,8.82583162 C110.629757,1.86556749 97.2420664,-1.72829438 87.8345002,0.819253273 L36.3642581,14.6942896 C26.9114632,17.2418373 17.1420675,27.0680925 14.6092612,36.5759043 L0.814512669,88.391204 C-1.71829362,97.8990157 1.8547724,111.364625 8.77476101,118.279397 L46.4502546,156.174168 C53.3702432,163.134433 66.7579336,166.728294 76.1654998,164.180747 L127.635742,150.30571 C137.088537,147.758163 146.857932,137.931907 149.390739,128.424096 L163.185487,76.608796 C165.718294,67.1009843 162.145228,53.6353752 155.225239,46.720603 L155.225239,46.720603 Z M40.1634675,27.5685037 C43.7817622,27.5685037 46.6311693,30.4344948 46.6311693,34.0738486 C46.6311693,37.6222185 43.7817622,40.4882096 40.1634675,40.4882096 C36.5451728,40.4882096 33.7862231,37.6222185 33.7862231,34.0738486 C33.7862231,30.4344948 36.7260876,27.5685037 40.1634675,27.5685037 L40.1634675,27.5685037 Z M34.0123665,47.9943768 C34.0123665,46.720603 35.0526263,45.6742888 36.3190294,45.6742888 L43.4651614,45.6742888 C44.7767933,45.6742888 45.817053,46.720603 45.7718243,48.0398688 L45.5456809,68.5112339 C45.5456809,73.105918 48.4855453,74.8346111 51.7872393,74.8346111 C54.9080184,74.8346111 57.6669681,73.2423938 57.9835689,69.2391046 L58.2097123,36.8033639 C58.2097123,34.8472113 59.7927163,33.3004859 61.7375497,33.3004859 L66.4865615,33.3004859 C68.4313949,33.3004859 70.0143988,34.8927032 70.0143988,36.8488558 L69.9691701,42.3533785 C70.9642012,41.7619835 72.0496896,41.3980481 73.2256354,41.3980481 C76.8439301,41.3980481 79.6933371,44.2640392 79.6933371,47.903393 C79.6933371,51.4517629 76.8439301,54.363246 73.2256354,54.363246 C71.9592322,54.363246 70.8285151,53.9993106 69.8787128,53.4079156 L69.7882554,68.5112339 C69.7882554,73.0149342 72.6376625,74.7436272 75.848899,74.8346111 C80.28131,74.8346111 82.4975155,72.2870634 82.4975155,72.2870634 L82.4975155,72.2870634 C83.4925466,71.2862411 84.8494071,70.6493542 86.4776397,70.6493542 L86.4776397,70.6493542 C88.4677018,70.6948461 90.4125352,71.6956684 91.3171089,73.5153453 C92.0859965,75.1075626 93.7594578,76.1993687 96.4279501,76.3813364 C99.6391867,76.608796 101.764935,75.4260061 101.94585,72.9694423 C102.126764,70.4673865 100.679446,69.5120561 94.7092601,67.6013954 C86.0253529,64.6444204 80.28131,62.3243324 80.9145116,53.7263591 C81.5477132,45.6742888 88.151101,40.9886208 98.5989269,41.8074754 C104.569113,42.2623946 108.775381,44.4460069 111.353416,47.6759334 C114.202823,51.2697953 111.443873,56.5923502 106.875776,56.5013663 C104.840485,56.4558744 102.986109,55.3185763 102.126764,53.4534075 C101.448334,51.997666 100.046245,51.0423356 97.7395819,50.8603679 C94.6188028,50.6329083 92.9001128,51.8156983 92.719198,54.0448025 C92.4930546,56.9562856 95.6138338,57.5931725 100.498532,59.2763736 C108.639695,62.0968728 114.338509,65.1448316 113.750536,72.7874746 C113.117334,81.2944641 106.468718,86.2530836 95.6138338,85.434229 C91.588481,85.1157855 88.286787,84.1604552 85.6635234,82.6137298 C81.9095426,84.7518502 78.2007906,85.434229 73.0899493,85.434229 C68.0243367,85.434229 63.8632978,84.0694713 61.1948055,81.1579883 C59.114286,83.6145521 56.1291929,85.434229 51.6967819,85.434229 C41.2037273,85.434229 33.5600797,81.0215125 33.6505371,71.2862411 L34.0123665,47.9943768 L34.0123665,47.9943768 Z M135.731676,109.999867 C135.731676,112.092496 134.058215,113.775697 131.977696,113.775697 L107.011462,113.775697 C107.237606,118.961776 110.403613,122.328178 115.740598,122.328178 C118.861377,122.328178 121.122811,121.372848 122.434443,119.644155 L122.434443,119.644155 C123.56516,117.960954 125.600451,117.096607 127.590513,117.369559 C132.113382,117.960954 134.058215,123.692936 130.666064,126.786386 C130.485149,126.968354 130.304234,127.10483 130.078091,127.241306 L130.078091,127.286798 C129.942405,127.377781 129.806719,127.468765 129.671033,127.605241 C129.535347,127.696225 129.444889,127.787209 129.309203,127.878193 C125.826595,130.42574 121.032354,131.972466 116.01197,131.972466 C105.292772,131.972466 97.3777525,126.058516 95.1163183,116.141277 L95.1163183,125.194169 C95.1163183,128.378604 92.5382833,130.971643 89.3722755,130.971643 C86.2062676,130.971643 83.6282326,128.378604 83.6282326,125.194169 L83.6282326,108.089206 C83.6282326,102.857635 81.2763411,99.9006603 76.8439301,99.9006603 C72.7281198,99.9006603 70.2405422,102.584684 69.7430267,106.724449 L69.7430267,125.148677 C69.7430267,128.333112 67.1649917,130.926151 63.9989839,130.926151 C60.832976,130.926151 58.254941,128.333112 58.254941,125.148677 L58.254941,108.089206 C58.254941,102.857635 55.8125921,99.9006603 51.6063245,99.9006603 C47.0382275,99.9006603 44.2792778,103.221571 44.2792778,108.134698 L44.2792778,125.103185 C44.2792778,128.28762 41.7012428,130.88066 38.5352349,130.88066 C35.3692271,130.88066 32.7911921,128.28762 32.7911921,125.103185 L32.7911921,110.909706 L32.7911921,110.864214 L32.7911921,109.635932 C32.7911921,88.4366959 49.2092043,89.0735828 54.4105029,89.0735828 C60.0188597,89.0735828 64.4964994,91.3936708 67.2102204,95.5789277 C69.562112,91.8485901 73.5874648,89.0735828 79.7837945,89.0735828 C88.6033878,89.0735828 94.5735741,94.7145812 95.2067757,104.176901 C97.3777525,94.0776943 105.292772,88.1182524 115.831055,88.1182524 C127.861885,88.1182524 135.822134,95.9428631 135.822134,108.999045 L135.822134,109.999867 L135.731676,109.999867 Z M115.650141,97.4440965 C110.629757,97.4440965 107.328063,100.537547 107.011462,105.905594 L123.836532,105.905594 C123.610389,100.765007 120.987125,97.4440965 115.650141,97.4440965 L115.650141,97.4440965 Z" id="Shape" fill="#FF4612"></path>
        </g>
    </g>
</svg>