<?xml version="1.0" encoding="utf-8"?>
<svg version="1.1" id="Layer_1" xmlns="http://www.w3.org/2000/svg" x="0px" y="0px"
	 viewBox="-289 381 32 32" style="enable-background:new -289 381 32 32;" xml:space="preserve">
<path fill="#15465B" d="M-268.1,381H-289v32h32L-268.1,381z M-280.3,409.6c-1.1,0-2.3-0.1-2.5-0.2c-0.1-0.2-0.2-0.7-0.2-1.2
	c0-0.4,0.1-0.8,0.2-1c0.5-0.1,1.2-0.3,2-0.4v-20.2c-0.7-0.1-1.4-0.2-2-0.4c-0.2-0.1-0.3-0.5-0.3-1s0.1-1,0.2-1.2
	c0.2,0,1.4-0.1,2.6-0.1h2.3c1,0,2.3,0.1,2.4,0.2c0.1,0.2,0.2,0.7,0.2,1.2c0,0.4-0.1,0.8-0.2,1c-0.6,0.2-1.5,0.3-2.3,0.4v20.1h9.3
	c0.1-0.9,0.3-1.9,0.4-2.5c0.2-0.1,0.6-0.2,1-0.2c0.5,0,1,0.1,1.2,0.2c0.1,0.1,0.1,1.4,0.1,2.5v2.8H-280.3z"/>
</svg>
