<svg width="24" height="24" viewBox="0 0 24 24" fill="none" xmlns="http://www.w3.org/2000/svg">
	<path transform="rotate(-180 12.0000057220459,17.017215728759766) " fill="black" d="m18,21.01721c-0.256,0 -0.512,-0.098 -0.707,-0.293l-5.293,-5.293l-5.29299,5.293c-0.391,0.391 -1.023,0.391 -1.414,0c-0.391,-0.391 -0.391,-1.023 0,-1.414l5.99999,-5.99999c0.391,-0.391 1.023,-0.391 1.414,0l6,5.99999c0.391,0.391 0.391,1.023 0,1.414c-0.195,0.195 -0.451,0.293 -0.707,0.293z"/>
	<path fill="black" d="m18,10.98279c-0.256,0 -0.512,-0.098 -0.707,-0.293l-5.293,-5.293l-5.29299,5.293c-0.391,0.391 -1.023,0.391 -1.414,0c-0.391,-0.391 -0.391,-1.023 0,-1.414l5.99999,-5.99999c0.391,-0.391 1.023,-0.391 1.414,0l6,5.99999c0.391,0.391 0.391,1.023 0,1.414c-0.195,0.195 -0.451,0.293 -0.707,0.293z"/>
</svg>
